<svg id="Layer_1" data-name="Layer 1" xmlns="http://www.w3.org/2000/svg" viewBox="0 0 512 512"><title>pointers</title><path d="M169.86,177.48l-.29.31a102.84,102.84,0,1,0,0,156.4l.32.33L248.39,256Z" fill="#ed7161"/><path d="M334.19,342.44l.31-.31L256,263.6l-78.53,78.53.35.31a102.84,102.84,0,1,0,156.38,0Z" fill="#48cfad"/><path d="M481.91,183.24a102.89,102.89,0,0,0-139.45-5.44l-.32-.32L263.61,256l78.53,78.51.29-.32a102.84,102.84,0,0,0,139.48-151Z" fill="#656d78"/><path d="M328.76,30.09a102.85,102.85,0,0,0-151,139.48l-.32.31L256,248.39l78.52-78.51-.32-.33A102.91,102.91,0,0,0,328.76,30.09Z" fill="#fc6"/></svg>