<svg xmlns="http://www.w3.org/2000/svg" width="495.61128717267604" height="78.65522209091407" viewBox="0 0 495.61128717267604 78.65522209091407" class="css-1j8o68f"><defs id="SvgjsDefs2650"></defs><g id="SvgjsG2651" featurekey="sloganFeature-0" transform="matrix(0.9363169355302765,0,0,0.9363169355302765,-1.4981068959366244,59.91015415739716)" fill="#ffffff"><path d="M13.82 3.5199999999999996 c0.16 0 0.56 0.08 0.56 0.7 l0 1.54 c0 0.64 -0.4 0.72 -0.56 0.72 l-7.18 0 c-0.42 0 -0.78 0.04 -1.04 0.14 c-0.26 0.08 -0.44 0.22 -0.6 0.44 s-0.26 0.5 -0.34 0.88 c-0.06 0.38 -0.1 0.88 -0.1 1.48 l0 4.66 c0 0.6 0.04 1.1 0.1 1.5 c0.08 0.38 0.18 0.68 0.34 0.88 c0.16 0.22 0.34 0.36 0.6 0.44 c0.26 0.1 0.62 0.14 1.04 0.14 l7.18 0 c0.16 0 0.56 0.08 0.56 0.7 l0 1.58 c0 0.62 -0.4 0.7 -0.56 0.7 l-7.28 0 c-0.88 0 -1.64 -0.12 -2.26 -0.34 s-1.14 -0.6 -1.54 -1.1 c-0.4 -0.52 -0.7 -1.18 -0.88 -1.96 c-0.18 -0.8 -0.26 -1.76 -0.26 -2.88 l0 -3.96 c0 -1.1 0.08 -2.06 0.26 -2.84 c0.18 -0.8 0.48 -1.46 0.88 -1.96 c0.38 -0.5 0.9 -0.88 1.54 -1.12 c0.62 -0.22 1.38 -0.34 2.26 -0.34 l7.28 0 z M32.2 4.98 c0.4 0.5 0.68 1.16 0.86 1.96 c0.16 0.78 0.26 1.74 0.26 2.84 l0 3.96 c0 1.12 -0.1 2.08 -0.26 2.86 c-0.18 0.8 -0.46 1.46 -0.86 1.98 c-0.4 0.5 -0.92 0.88 -1.56 1.1 c-0.62 0.22 -1.38 0.34 -2.26 0.34 l-4.88 0 c-0.88 0 -1.64 -0.12 -2.24 -0.34 c-0.64 -0.22 -1.16 -0.6 -1.56 -1.12 c-0.38 -0.5 -0.68 -1.16 -0.86 -1.96 c-0.18 -0.78 -0.26 -1.74 -0.26 -2.86 l0 -3.96 c0 -1.12 0.08 -2.06 0.26 -2.84 c0.18 -0.8 0.48 -1.46 0.86 -1.96 c0.4 -0.5 0.92 -0.88 1.56 -1.12 c0.62 -0.22 1.36 -0.34 2.24 -0.34 l4.88 0 c0.88 0 1.64 0.12 2.26 0.34 c0.64 0.24 1.16 0.62 1.56 1.12 z M30.34 9.44 c0 -0.58 -0.02 -1.08 -0.1 -1.48 c-0.06 -0.38 -0.18 -0.68 -0.34 -0.9 c-0.14 -0.2 -0.34 -0.34 -0.6 -0.44 c-0.26 -0.08 -0.6 -0.14 -1.02 -0.14 l-4.68 0 c-0.42 0 -0.76 0.06 -1.02 0.14 c-0.26 0.1 -0.46 0.24 -0.6 0.44 c-0.16 0.22 -0.26 0.52 -0.34 0.9 c-0.06 0.4 -0.1 0.9 -0.1 1.48 l0 4.66 c0 0.58 0.04 1.08 0.1 1.48 c0.08 0.36 0.18 0.68 0.34 0.88 c0.14 0.22 0.34 0.36 0.6 0.44 c0.26 0.1 0.6 0.14 1.02 0.14 l4.68 0 c0.42 0 0.76 -0.04 1.02 -0.14 c0.26 -0.08 0.46 -0.22 0.6 -0.44 c0.16 -0.2 0.28 -0.52 0.34 -0.88 c0.08 -0.4 0.1 -0.9 0.1 -1.48 l0 -4.66 z M51.68 3.5199999999999996 c0.16 0 0.56 0.06 0.56 0.7 l0 13.22 c0 0.98 -0.14 1.64 -0.42 2 c-0.28 0.38 -0.72 0.58 -1.3 0.58 l-1.46 0 c-0.28 0 -0.5 -0.02 -0.68 -0.06 c-0.2 -0.04 -0.38 -0.1 -0.54 -0.22 c-0.16 -0.1 -0.3 -0.24 -0.44 -0.44 c-0.14 -0.18 -0.3 -0.42 -0.46 -0.74 l-6.34 -11.24 c-0.04 -0.06 -0.06 -0.06 -0.06 -0.06 l-0.1 0 l0 12.06 c0 0.62 -0.38 0.7 -0.56 0.7 l-1.78 0 c-0.18 0 -0.58 -0.08 -0.58 -0.7 l0 -13.22 c0 -0.98 0.14 -1.64 0.42 -2.02 c0.28 -0.36 0.72 -0.56 1.3 -0.56 l1.5 0 c0.26 0 0.5 0.02 0.7 0.04 c0.22 0.04 0.4 0.12 0.56 0.24 c0.14 0.1 0.28 0.26 0.42 0.46 c0.14 0.18 0.28 0.42 0.44 0.72 l6.32 11.24 c0.02 0.06 0.04 0.06 0.06 0.06 l0.1 0 l0 -12.06 c0 -0.64 0.38 -0.7 0.56 -0.7 l1.78 0 z M66.10000000000001 10.16 c1.04 0 1.84 0.38 2.38 1.1 c0.52 0.72 0.78 1.74 0.78 3.04 l0 1.76 c0 1.16 -0.26 2.1 -0.76 2.82 c-0.52 0.74 -1.34 1.12 -2.44 1.12 l-9.02 0 c-0.18 0 -0.58 -0.06 -0.58 -0.68 l0 -1.6 c0 -0.62 0.4 -0.68 0.58 -0.68 l8.54 0 c0.34 0 0.46 -0.14 0.54 -0.26 c0.12 -0.2 0.18 -0.48 0.18 -0.84 l0 -1.72 c0 -0.98 -0.4 -1.1 -0.7 -1.1 l-6 0 c-0.84 0 -1.76 -0.12 -2.38 -0.94 c-0.5 -0.7 -0.78 -1.82 -0.78 -3.2 l0 -1.52 c0 -1.16 0.26 -2.12 0.78 -2.84 c0.52 -0.74 1.32 -1.1 2.42 -1.1 l8.62 0 c0.16 0 0.56 0.06 0.56 0.68 l0 1.6 c0 0.62 -0.4 0.68 -0.56 0.68 l-8.14 0 c-0.34 0 -0.46 0.14 -0.54 0.26 c-0.1 0.2 -0.16 0.48 -0.16 0.84 l0 1.48 c0 0.98 0.38 1.1 0.68 1.1 l6 0 z M87.28 3.5199999999999996 c0.18 0 0.58 0.06 0.58 0.68 l0 1.56 c0 0.66 -0.4 0.72 -0.58 0.72 l-5.14 0 l0 12.84 c0 0.62 -0.38 0.68 -0.56 0.68 l-1.84 0 c-0.16 0 -0.56 -0.06 -0.56 -0.68 l0 -12.84 l-5.14 0 c-0.18 0 -0.58 -0.06 -0.58 -0.72 l0 -1.56 c0 -0.62 0.4 -0.68 0.58 -0.68 l13.24 0 z M106.08000000000001 19.14 c0.08 0.12 0.1 0.28 0.08 0.48 c-0.04 0.24 -0.22 0.4 -0.46 0.4 l-2.2 0 c-0.18 0 -0.32 -0.04 -0.42 -0.12 c-0.08 -0.06 -0.14 -0.16 -0.22 -0.28 l-3.62 -6.42 l-4.22 0 l0 6.12 c0 0.62 -0.38 0.7 -0.56 0.7 l-1.82 0 c-0.18 0 -0.58 -0.08 -0.58 -0.7 l0 -8.4 c0 -0.62 0.4 -0.68 0.58 -0.68 l8.7 0 c0.52 0 0.86 -0.14 1.06 -0.44 c0.22 -0.3 0.32 -0.78 0.32 -1.44 s-0.1 -1.14 -0.32 -1.44 c-0.2 -0.3 -0.54 -0.44 -1.06 -0.44 l-8.7 0 c-0.18 0 -0.58 -0.06 -0.58 -0.68 l0 -1.58 c0 -0.64 0.4 -0.7 0.58 -0.7 l9.22 0 c1.36 0 2.36 0.42 2.96 1.28 c0.54 0.82 0.84 1.98 0.88 3.5 l0 0.12 c-0.04 1.54 -0.34 2.7 -0.88 3.5 c-0.5 0.68 -1.26 1.1 -2.24 1.22 z M124.2 3.5199999999999996 c0.18 0 0.56 0.06 0.56 0.68 l0 9.54 c0 1.12 -0.08 2.08 -0.26 2.86 c-0.18 0.8 -0.46 1.46 -0.86 1.96 c-0.4 0.52 -0.92 0.88 -1.56 1.12 c-0.62 0.22 -1.38 0.32 -2.26 0.32 l-4.5 0 c-0.88 0 -1.64 -0.1 -2.26 -0.32 c-0.62 -0.24 -1.16 -0.6 -1.54 -1.12 c-0.4 -0.5 -0.7 -1.16 -0.88 -1.96 c-0.18 -0.78 -0.26 -1.74 -0.26 -2.86 l0 -9.54 c0 -0.62 0.4 -0.68 0.58 -0.68 l1.82 0 c0.18 0 0.56 0.06 0.56 0.68 l0 9.86 c0 0.6 0.04 1.12 0.1 1.5 c0.08 0.38 0.2 0.68 0.34 0.9 c0.16 0.2 0.34 0.34 0.6 0.44 c0.26 0.08 0.62 0.14 1.04 0.14 l4.32 0 c0.42 0 0.78 -0.06 1.04 -0.14 c0.26 -0.1 0.44 -0.24 0.6 -0.44 c0.14 -0.22 0.26 -0.52 0.32 -0.9 s0.1 -0.9 0.1 -1.5 l0 -9.86 c0 -0.62 0.38 -0.68 0.56 -0.68 l1.84 0 z M141.18 3.5199999999999996 c0.16 0 0.56 0.08 0.56 0.7 l0 1.54 c0 0.64 -0.4 0.72 -0.56 0.72 l-7.18 0 c-0.42 0 -0.78 0.04 -1.04 0.14 c-0.26 0.08 -0.44 0.22 -0.6 0.44 s-0.26 0.5 -0.34 0.88 c-0.06 0.38 -0.1 0.88 -0.1 1.48 l0 4.66 c0 0.6 0.04 1.1 0.1 1.5 c0.08 0.38 0.18 0.68 0.34 0.88 c0.16 0.22 0.34 0.36 0.6 0.44 c0.26 0.1 0.62 0.14 1.04 0.14 l7.18 0 c0.16 0 0.56 0.08 0.56 0.7 l0 1.58 c0 0.62 -0.4 0.7 -0.56 0.7 l-7.28 0 c-0.88 0 -1.64 -0.12 -2.26 -0.34 s-1.14 -0.6 -1.54 -1.1 c-0.4 -0.52 -0.7 -1.18 -0.88 -1.96 c-0.18 -0.8 -0.26 -1.76 -0.26 -2.88 l0 -3.96 c0 -1.1 0.08 -2.06 0.26 -2.84 c0.18 -0.8 0.48 -1.46 0.88 -1.96 c0.38 -0.5 0.9 -0.88 1.54 -1.12 c0.62 -0.22 1.38 -0.34 2.26 -0.34 l7.28 0 z M159.76 3.5199999999999996 c0.18 0 0.58 0.06 0.58 0.68 l0 1.56 c0 0.66 -0.4 0.72 -0.58 0.72 l-5.14 0 l0 12.84 c0 0.62 -0.38 0.68 -0.56 0.68 l-1.84 0 c-0.16 0 -0.56 -0.06 -0.56 -0.68 l0 -12.84 l-5.14 0 c-0.18 0 -0.58 -0.06 -0.58 -0.72 l0 -1.56 c0 -0.62 0.4 -0.68 0.58 -0.68 l13.24 0 z M166.94 3.5199999999999996 c0.16 0 0.56 0.08 0.56 0.7 l0 15.1 c0 0.62 -0.4 0.7 -0.56 0.7 l-1.84 0 c-0.16 0 -0.56 -0.08 -0.56 -0.7 l0 -15.1 c0 -0.62 0.4 -0.7 0.56 -0.7 l1.84 0 z M185.32 4.98 c0.4 0.5 0.68 1.16 0.86 1.96 c0.16 0.78 0.26 1.74 0.26 2.84 l0 3.96 c0 1.12 -0.1 2.08 -0.26 2.86 c-0.18 0.8 -0.46 1.46 -0.86 1.98 c-0.4 0.5 -0.92 0.88 -1.56 1.1 c-0.62 0.22 -1.38 0.34 -2.26 0.34 l-4.88 0 c-0.88 0 -1.64 -0.12 -2.24 -0.34 c-0.64 -0.22 -1.16 -0.6 -1.56 -1.12 c-0.38 -0.5 -0.68 -1.16 -0.86 -1.96 c-0.18 -0.78 -0.26 -1.74 -0.26 -2.86 l0 -3.96 c0 -1.12 0.08 -2.06 0.26 -2.84 c0.18 -0.8 0.48 -1.46 0.86 -1.96 c0.4 -0.5 0.92 -0.88 1.56 -1.12 c0.62 -0.22 1.36 -0.34 2.24 -0.34 l4.88 0 c0.88 0 1.64 0.12 2.26 0.34 c0.64 0.24 1.16 0.62 1.56 1.12 z M183.45999999999998 9.44 c0 -0.58 -0.02 -1.08 -0.1 -1.48 c-0.06 -0.38 -0.18 -0.68 -0.34 -0.9 c-0.14 -0.2 -0.34 -0.34 -0.6 -0.44 c-0.26 -0.08 -0.6 -0.14 -1.02 -0.14 l-4.68 0 c-0.42 0 -0.76 0.06 -1.02 0.14 c-0.26 0.1 -0.46 0.24 -0.6 0.44 c-0.16 0.22 -0.26 0.52 -0.34 0.9 c-0.06 0.4 -0.1 0.9 -0.1 1.48 l0 4.66 c0 0.58 0.04 1.08 0.1 1.48 c0.08 0.36 0.18 0.68 0.34 0.88 c0.14 0.22 0.34 0.36 0.6 0.44 c0.26 0.1 0.6 0.14 1.02 0.14 l4.68 0 c0.42 0 0.76 -0.04 1.02 -0.14 c0.26 -0.08 0.46 -0.22 0.6 -0.44 c0.16 -0.2 0.28 -0.52 0.34 -0.88 c0.08 -0.4 0.1 -0.9 0.1 -1.48 l0 -4.66 z M204.79999999999998 3.5199999999999996 c0.16 0 0.56 0.06 0.56 0.7 l0 13.22 c0 0.98 -0.14 1.64 -0.42 2 c-0.28 0.38 -0.72 0.58 -1.3 0.58 l-1.46 0 c-0.28 0 -0.5 -0.02 -0.68 -0.06 c-0.2 -0.04 -0.38 -0.1 -0.54 -0.22 c-0.16 -0.1 -0.3 -0.24 -0.44 -0.44 c-0.14 -0.18 -0.3 -0.42 -0.46 -0.74 l-6.34 -11.24 c-0.04 -0.06 -0.06 -0.06 -0.06 -0.06 l-0.1 0 l0 12.06 c0 0.62 -0.38 0.7 -0.56 0.7 l-1.78 0 c-0.18 0 -0.58 -0.08 -0.58 -0.7 l0 -13.22 c0 -0.98 0.14 -1.64 0.42 -2.02 c0.28 -0.36 0.72 -0.56 1.3 -0.56 l1.5 0 c0.26 0 0.5 0.02 0.7 0.04 c0.22 0.04 0.4 0.12 0.56 0.24 c0.14 0.1 0.28 0.26 0.42 0.46 c0.14 0.18 0.28 0.42 0.44 0.72 l6.32 11.24 c0.02 0.06 0.04 0.06 0.06 0.06 l0.1 0 l0 -12.06 c0 -0.64 0.38 -0.7 0.56 -0.7 l1.78 0 z M231.55999999999997 5.380000000000001 l5.62 13.86 c0.08 0.18 0.1 0.36 0.06 0.48 c-0.04 0.1 -0.12 0.3 -0.44 0.3 l-2.14 0 c-0.28 0 -0.48 -0.16 -0.58 -0.44 l-4.96 -12.38 l-0.02 -0.04 l-0.08 0 s-0.02 0.02 -0.04 0.06 l-2.56 6.48 l2.48 0 c0.26 0 0.48 0.16 0.58 0.4 l0.72 1.78 c0.06 0.2 0.04 0.42 -0.08 0.58 c-0.1 0.18 -0.3 0.28 -0.52 0.28 l-4.38 0 l-1.14 2.86 c-0.1 0.26 -0.3 0.42 -0.56 0.42 l-2.2 0 c-0.32 0 -0.42 -0.18 -0.44 -0.3 c-0.04 -0.12 -0.02 -0.3 0.04 -0.48 l5.58 -13.86 c0.28 -0.72 0.58 -1.2 0.88 -1.46 c0.08 -0.06 0.18 -0.14 0.3 -0.2 c0.4 -0.28 0.88 -0.42 1.38 -0.42 c1.1 0 2.06 0.74 2.38 1.78 z M255.64 3.5199999999999996 c0.16 0 0.56 0.06 0.56 0.7 l0 13.22 c0 0.98 -0.14 1.64 -0.42 2 c-0.28 0.38 -0.72 0.58 -1.3 0.58 l-1.46 0 c-0.28 0 -0.5 -0.02 -0.68 -0.06 c-0.2 -0.04 -0.38 -0.1 -0.54 -0.22 c-0.16 -0.1 -0.3 -0.24 -0.44 -0.44 c-0.14 -0.18 -0.3 -0.42 -0.46 -0.74 l-6.34 -11.24 c-0.04 -0.06 -0.06 -0.06 -0.06 -0.06 l-0.1 0 l0 12.06 c0 0.62 -0.38 0.7 -0.56 0.7 l-1.78 0 c-0.18 0 -0.58 -0.08 -0.58 -0.7 l0 -13.22 c0 -0.98 0.14 -1.64 0.42 -2.02 c0.28 -0.36 0.72 -0.56 1.3 -0.56 l1.5 0 c0.26 0 0.5 0.02 0.7 0.04 c0.22 0.04 0.4 0.12 0.56 0.24 c0.14 0.1 0.28 0.26 0.42 0.46 c0.14 0.18 0.28 0.42 0.44 0.72 l6.32 11.24 c0.02 0.06 0.04 0.06 0.06 0.06 l0.1 0 l0 -12.06 c0 -0.64 0.38 -0.7 0.56 -0.7 l1.78 0 z M274.06 7.24 c0.2 0.84 0.3 1.84 0.3 2.96 l0 3.14 c0 1.12 -0.1 2.12 -0.3 2.96 s-0.54 1.54 -0.96 2.08 c-0.44 0.56 -1.02 0.98 -1.7 1.24 c-0.66 0.26 -1.48 0.4 -2.42 0.4 l-6.84 0 c-0.62 0 -1.2 -0.32 -1.52 -0.86 c-0.1 -0.18 -0.18 -0.4 -0.22 -0.62 l0.02 -13.66 c0.04 -0.16 0.12 -0.34 0.2 -0.5 c0.3 -0.48 0.8 -0.8 1.38 -0.84 l0 -0.02 l6.98 0 c0.94 0 1.74 0.14 2.42 0.4 s1.26 0.68 1.7 1.22 c0.42 0.56 0.76 1.26 0.96 2.1 z M263.34000000000003 16.94 c0 0.08 0.02 0.1 0.02 0.1 l5.56 0 c0.46 0 0.86 -0.04 1.18 -0.16 s0.56 -0.3 0.74 -0.54 c0.2 -0.26 0.34 -0.6 0.42 -1.04 s0.14 -1 0.14 -1.66 l0 -3.74 c0 -0.66 -0.06 -1.22 -0.14 -1.68 c-0.08 -0.42 -0.22 -0.76 -0.42 -1.02 c-0.18 -0.26 -0.42 -0.42 -0.74 -0.54 s-0.72 -0.18 -1.18 -0.18 l-5.54 0 c-0.02 0 -0.04 0.04 -0.04 0.12 l0 10.34 z M301.86 16.42 c0.18 0 0.58 0.06 0.58 0.68 l0 2.2 c0 0.62 -0.4 0.68 -0.58 0.68 l-7.1 0 c-0.88 0 -1.62 -0.1 -2.24 -0.34 c-0.64 -0.22 -1.16 -0.58 -1.56 -1.1 c-0.38 -0.5 -0.68 -1.16 -0.86 -1.96 c-0.14 -0.66 -0.24 -1.46 -0.26 -2.4 l0 -0.1 l0.04 -2.52 c0.04 -0.18 0.12 -0.34 0.22 -0.5 c0.28 -0.5 0.78 -0.8 1.36 -0.84 l10.32 -0.02 c0.16 0 0.56 0.06 0.56 0.68 l0 1.58 c0 0.62 -0.4 0.7 -0.56 0.7 l-8.94 0 c-0.02 0 -0.04 1.44 -0.04 1.44 l0.04 0.34 c0.06 0.38 0.18 0.68 0.34 0.9 c0.16 0.2 0.34 0.34 0.6 0.44 c0.28 0.08 0.62 0.14 1.04 0.14 l7.04 0 z M301.88 3.4800000000000004 c0.16 0 0.56 0.08 0.56 0.7 l0 1.58 c0 0.62 -0.4 0.7 -0.56 0.7 l-11.5 -0.02 c-0.16 0 -0.54 -0.06 -0.54 -0.68 l0 -1.56 c0 -0.64 0.38 -0.72 0.54 -0.72 l11.5 0 z M320.8 3.5199999999999996 c0.16 0 0.56 0.06 0.56 0.7 l0 13.22 c0 0.98 -0.14 1.64 -0.42 2 c-0.28 0.38 -0.72 0.58 -1.3 0.58 l-1.46 0 c-0.28 0 -0.5 -0.02 -0.68 -0.06 c-0.2 -0.04 -0.38 -0.1 -0.54 -0.22 c-0.16 -0.1 -0.3 -0.24 -0.44 -0.44 c-0.14 -0.18 -0.3 -0.42 -0.46 -0.74 l-6.34 -11.24 c-0.04 -0.06 -0.06 -0.06 -0.06 -0.06 l-0.1 0 l0 12.06 c0 0.62 -0.38 0.7 -0.56 0.7 l-1.78 0 c-0.18 0 -0.58 -0.08 -0.58 -0.7 l0 -13.22 c0 -0.98 0.14 -1.64 0.42 -2.02 c0.28 -0.36 0.72 -0.56 1.3 -0.56 l1.5 0 c0.26 0 0.5 0.02 0.7 0.04 c0.22 0.04 0.4 0.12 0.56 0.24 c0.14 0.1 0.28 0.26 0.42 0.46 c0.14 0.18 0.28 0.42 0.44 0.72 l6.32 11.24 c0.02 0.06 0.04 0.06 0.06 0.06 l0.1 0 l0 -12.06 c0 -0.64 0.38 -0.7 0.56 -0.7 l1.78 0 z M339.38000000000005 3.5199999999999996 c0.18 0 0.58 0.06 0.58 0.68 l0 1.56 c0 0.66 -0.4 0.72 -0.58 0.72 l-5.14 0 l0 12.84 c0 0.62 -0.38 0.68 -0.56 0.68 l-1.84 0 c-0.16 0 -0.56 -0.06 -0.56 -0.68 l0 -12.84 l-5.14 0 c-0.18 0 -0.58 -0.06 -0.58 -0.72 l0 -1.56 c0 -0.62 0.4 -0.68 0.58 -0.68 l13.24 0 z M356.18000000000006 16.42 c0.18 0 0.58 0.06 0.58 0.68 l0 2.2 c0 0.62 -0.4 0.68 -0.58 0.68 l-7.1 0 c-0.88 0 -1.62 -0.1 -2.24 -0.34 c-0.64 -0.22 -1.16 -0.58 -1.56 -1.1 c-0.38 -0.5 -0.68 -1.16 -0.86 -1.96 c-0.14 -0.66 -0.24 -1.46 -0.26 -2.4 l0 -0.1 l0.04 -2.52 c0.04 -0.18 0.12 -0.34 0.22 -0.5 c0.28 -0.5 0.78 -0.8 1.36 -0.84 l10.32 -0.02 c0.16 0 0.56 0.06 0.56 0.68 l0 1.58 c0 0.62 -0.4 0.7 -0.56 0.7 l-8.94 0 c-0.02 0 -0.04 1.44 -0.04 1.44 l0.04 0.34 c0.06 0.38 0.18 0.68 0.34 0.9 c0.16 0.2 0.34 0.34 0.6 0.44 c0.28 0.08 0.62 0.14 1.04 0.14 l7.04 0 z M356.20000000000005 3.4800000000000004 c0.16 0 0.56 0.08 0.56 0.7 l0 1.58 c0 0.62 -0.4 0.7 -0.56 0.7 l-11.5 -0.02 c-0.16 0 -0.54 -0.06 -0.54 -0.68 l0 -1.56 c0 -0.64 0.38 -0.72 0.54 -0.72 l11.5 0 z M374.9800000000001 19.14 c0.08 0.12 0.1 0.28 0.08 0.48 c-0.04 0.24 -0.22 0.4 -0.46 0.4 l-2.2 0 c-0.18 0 -0.32 -0.04 -0.42 -0.12 c-0.08 -0.06 -0.14 -0.16 -0.22 -0.28 l-3.62 -6.42 l-4.22 0 l0 6.12 c0 0.62 -0.38 0.7 -0.56 0.7 l-1.82 0 c-0.18 0 -0.58 -0.08 -0.58 -0.7 l0 -8.4 c0 -0.62 0.4 -0.68 0.58 -0.68 l8.7 0 c0.52 0 0.86 -0.14 1.06 -0.44 c0.22 -0.3 0.32 -0.78 0.32 -1.44 s-0.1 -1.14 -0.32 -1.44 c-0.2 -0.3 -0.54 -0.44 -1.06 -0.44 l-8.7 0 c-0.18 0 -0.58 -0.06 -0.58 -0.68 l0 -1.58 c0 -0.64 0.4 -0.7 0.58 -0.7 l9.22 0 c1.36 0 2.36 0.42 2.96 1.28 c0.54 0.82 0.84 1.98 0.88 3.5 l0 0.12 c-0.04 1.54 -0.34 2.7 -0.88 3.5 c-0.5 0.68 -1.26 1.1 -2.24 1.22 z M389.08000000000004 3.5199999999999996 c1.36 0 2.34 0.42 2.94 1.28 c0.58 0.8 0.86 1.96 0.88 3.5 c0 1.58 -0.28 2.78 -0.88 3.62 s-1.58 1.26 -2.94 1.26 l-6.84 0.02 l0 6.12 c0 0.62 -0.4 0.7 -0.56 0.7 l-1.84 0 c-0.16 0 -0.56 -0.08 -0.56 -0.7 l0 -8.4 c0 -0.62 0.4 -0.68 0.56 -0.68 l8.72 0 c0.5 0 0.86 -0.14 1.06 -0.44 c0.22 -0.3 0.32 -0.78 0.32 -1.44 s-0.1 -1.14 -0.32 -1.44 c-0.2 -0.3 -0.56 -0.44 -1.06 -0.44 l-8.72 0 c-0.16 0 -0.56 -0.06 -0.56 -0.68 l0 -1.58 c0 -0.64 0.4 -0.7 0.56 -0.7 l9.24 0 z M411.12000000000006 19.14 c0.08 0.12 0.1 0.28 0.08 0.48 c-0.04 0.24 -0.22 0.4 -0.46 0.4 l-2.2 0 c-0.18 0 -0.32 -0.04 -0.42 -0.12 c-0.08 -0.06 -0.14 -0.16 -0.22 -0.28 l-3.62 -6.42 l-4.22 0 l0 6.12 c0 0.62 -0.38 0.7 -0.56 0.7 l-1.82 0 c-0.18 0 -0.58 -0.08 -0.58 -0.7 l0 -8.4 c0 -0.62 0.4 -0.68 0.58 -0.68 l8.7 0 c0.52 0 0.86 -0.14 1.06 -0.44 c0.22 -0.3 0.32 -0.78 0.32 -1.44 s-0.1 -1.14 -0.32 -1.44 c-0.2 -0.3 -0.54 -0.44 -1.06 -0.44 l-8.7 0 c-0.18 0 -0.58 -0.06 -0.58 -0.68 l0 -1.58 c0 -0.64 0.4 -0.7 0.58 -0.7 l9.22 0 c1.36 0 2.36 0.42 2.96 1.28 c0.54 0.82 0.84 1.98 0.88 3.5 l0 0.12 c-0.04 1.54 -0.34 2.7 -0.88 3.5 c-0.5 0.68 -1.26 1.1 -2.24 1.22 z M417.82000000000005 3.5199999999999996 c0.16 0 0.56 0.08 0.56 0.7 l0 15.1 c0 0.62 -0.4 0.7 -0.56 0.7 l-1.84 0 c-0.16 0 -0.56 -0.08 -0.56 -0.7 l0 -15.1 c0 -0.62 0.4 -0.7 0.56 -0.7 l1.84 0 z M432.24000000000007 10.16 c1.04 0 1.84 0.38 2.38 1.1 c0.52 0.72 0.78 1.74 0.78 3.04 l0 1.76 c0 1.16 -0.26 2.1 -0.76 2.82 c-0.52 0.74 -1.34 1.12 -2.44 1.12 l-9.02 0 c-0.18 0 -0.58 -0.06 -0.58 -0.68 l0 -1.6 c0 -0.62 0.4 -0.68 0.58 -0.68 l8.54 0 c0.34 0 0.46 -0.14 0.54 -0.26 c0.12 -0.2 0.18 -0.48 0.18 -0.84 l0 -1.72 c0 -0.98 -0.4 -1.1 -0.7 -1.1 l-6 0 c-0.84 0 -1.76 -0.12 -2.38 -0.94 c-0.5 -0.7 -0.78 -1.82 -0.78 -3.2 l0 -1.52 c0 -1.16 0.26 -2.12 0.78 -2.84 c0.52 -0.74 1.32 -1.1 2.42 -1.1 l8.62 0 c0.16 0 0.56 0.06 0.56 0.68 l0 1.6 c0 0.62 -0.4 0.68 -0.56 0.68 l-8.14 0 c-0.34 0 -0.46 0.14 -0.54 0.26 c-0.1 0.2 -0.16 0.48 -0.16 0.84 l0 1.48 c0 0.98 0.38 1.1 0.68 1.1 l6 0 z M451.62000000000006 16.42 c0.18 0 0.58 0.06 0.58 0.68 l0 2.2 c0 0.62 -0.4 0.68 -0.58 0.68 l-7.1 0 c-0.88 0 -1.62 -0.1 -2.24 -0.34 c-0.64 -0.22 -1.16 -0.58 -1.56 -1.1 c-0.38 -0.5 -0.68 -1.16 -0.86 -1.96 c-0.14 -0.66 -0.24 -1.46 -0.26 -2.4 l0 -0.1 l0.04 -2.52 c0.04 -0.18 0.12 -0.34 0.22 -0.5 c0.28 -0.5 0.78 -0.8 1.36 -0.84 l10.32 -0.02 c0.16 0 0.56 0.06 0.56 0.68 l0 1.58 c0 0.62 -0.4 0.7 -0.56 0.7 l-8.94 0 c-0.02 0 -0.04 1.44 -0.04 1.44 l0.04 0.34 c0.06 0.38 0.18 0.68 0.34 0.9 c0.16 0.2 0.34 0.34 0.6 0.44 c0.28 0.08 0.62 0.14 1.04 0.14 l7.04 0 z M451.64000000000004 3.4800000000000004 c0.16 0 0.56 0.08 0.56 0.7 l0 1.58 c0 0.62 -0.4 0.7 -0.56 0.7 l-11.5 -0.02 c-0.16 0 -0.54 -0.06 -0.54 -0.68 l0 -1.56 c0 -0.64 0.38 -0.72 0.54 -0.72 l11.5 0 z M466.06000000000006 10.16 c1.04 0 1.84 0.38 2.38 1.1 c0.52 0.72 0.78 1.74 0.78 3.04 l0 1.76 c0 1.16 -0.26 2.1 -0.76 2.82 c-0.52 0.74 -1.34 1.12 -2.44 1.12 l-9.02 0 c-0.18 0 -0.58 -0.06 -0.58 -0.68 l0 -1.6 c0 -0.62 0.4 -0.68 0.58 -0.68 l8.54 0 c0.34 0 0.46 -0.14 0.54 -0.26 c0.12 -0.2 0.18 -0.48 0.18 -0.84 l0 -1.72 c0 -0.98 -0.4 -1.1 -0.7 -1.1 l-6 0 c-0.84 0 -1.76 -0.12 -2.38 -0.94 c-0.5 -0.7 -0.78 -1.82 -0.78 -3.2 l0 -1.52 c0 -1.16 0.26 -2.12 0.78 -2.84 c0.52 -0.74 1.32 -1.1 2.42 -1.1 l8.62 0 c0.16 0 0.56 0.06 0.56 0.68 l0 1.6 c0 0.62 -0.4 0.68 -0.56 0.68 l-8.14 0 c-0.34 0 -0.46 0.14 -0.54 0.26 c-0.1 0.2 -0.16 0.48 -0.16 0.84 l0 1.48 c0 0.98 0.38 1.1 0.68 1.1 l6 0 z M496.24 17.04 c0.18 0 0.56 0.08 0.56 0.7 l0 1.58 c0 0.62 -0.38 0.7 -0.56 0.7 l-6.6 0 c-0.88 0 -1.64 -0.12 -2.24 -0.34 c-0.64 -0.22 -1.16 -0.6 -1.56 -1.12 c-0.4 -0.5 -0.68 -1.16 -0.86 -1.96 c-0.18 -0.78 -0.28 -1.74 -0.28 -2.86 l0 -9.52 c0 -0.64 0.4 -0.7 0.58 -0.7 l1.84 0 c0.16 0 0.56 0.06 0.56 0.7 l0 9.86 c0 0.6 0.02 1.1 0.1 1.5 c0.06 0.36 0.18 0.66 0.34 0.88 c0.14 0.22 0.34 0.36 0.58 0.44 c0.28 0.1 0.62 0.14 1.04 0.14 l6.5 0 z M512.5400000000001 17.04 c0.18 0 0.56 0.08 0.56 0.7 l0 1.58 c0 0.62 -0.38 0.7 -0.56 0.7 l-6.6 0 c-0.88 0 -1.64 -0.12 -2.24 -0.34 c-0.64 -0.22 -1.16 -0.6 -1.56 -1.12 c-0.4 -0.5 -0.68 -1.16 -0.86 -1.96 c-0.18 -0.78 -0.28 -1.74 -0.28 -2.86 l0 -9.52 c0 -0.64 0.4 -0.7 0.58 -0.7 l1.84 0 c0.16 0 0.56 0.06 0.56 0.7 l0 9.86 c0 0.6 0.02 1.1 0.1 1.5 c0.06 0.36 0.18 0.66 0.34 0.88 c0.14 0.22 0.34 0.36 0.58 0.44 c0.28 0.1 0.62 0.14 1.04 0.14 l6.5 0 z M527.1 3.5199999999999996 c1.36 0 2.34 0.42 2.94 1.28 c0.58 0.8 0.86 1.96 0.88 3.5 c0 1.58 -0.28 2.78 -0.88 3.62 s-1.58 1.26 -2.94 1.26 l-6.84 0.02 l0 6.12 c0 0.62 -0.4 0.7 -0.56 0.7 l-1.84 0 c-0.16 0 -0.56 -0.08 -0.56 -0.7 l0 -8.4 c0 -0.62 0.4 -0.68 0.56 -0.68 l8.72 0 c0.5 0 0.86 -0.14 1.06 -0.44 c0.22 -0.3 0.32 -0.78 0.32 -1.44 s-0.1 -1.14 -0.32 -1.44 c-0.2 -0.3 -0.56 -0.44 -1.06 -0.44 l-8.72 0 c-0.16 0 -0.56 -0.06 -0.56 -0.68 l0 -1.58 c0 -0.64 0.4 -0.7 0.56 -0.7 l9.24 0 z"></path></g><g id="SvgjsG2652" featurekey="nameLeftFeature-0" transform="matrix(0.9488010098079475,0,0,0.9488010098079475,-1.0361610145099034,6.320446356228863)" fill="#ffffff"><path d="M30.28 7.039999999999999 c0.32 0 1.12 0.16 1.12 1.4 l0 3.12 c0 1.28 -0.8 1.4 -1.12 1.4 l-17 0 c-0.84 0 -1.56 0.12 -2.08 0.28 c-0.52 0.2 -0.88 0.48 -1.2 0.88 c-0.28 0.44 -0.52 1.04 -0.64 1.76 c-0.16 0.8 -0.24 1.8 -0.24 3 l0 9.28 c0 1.2 0.08 2.2 0.24 3 c0.12 0.76 0.36 1.36 0.64 1.76 c0.32 0.44 0.68 0.72 1.2 0.88 c0.52 0.2 1.24 0.28 2.08 0.28 l11.2 0 c0.44 0 0.76 -0.12 0.96 -0.44 c0.16 -0.24 0.36 -0.76 0.36 -2 l-0.04 -5.6 l-9.96 0 c-0.32 0 -1.12 -0.12 -1.12 -1.44 l0 -3.04 c0 -1.28 0.8 -1.44 1.12 -1.44 l14.16 0 c0.52 0 1.4 0.24 1.4 1.76 l0 10.72 c0 2.68 -0.4 4.56 -1.16 5.68 c-0.8 1.16 -1.96 1.76 -3.44 1.76 l-13.68 0 c-1.76 0 -3.28 -0.24 -4.52 -0.68 s-2.28 -1.2 -3.08 -2.2 c-0.8 -1.04 -1.4 -2.36 -1.76 -3.92 c-0.36 -1.6 -0.52 -3.52 -0.52 -5.76 l0 -7.92 c0 -2.2 0.16 -4.12 0.52 -5.68 c0.36 -1.6 0.96 -2.88 1.76 -3.92 c0.76 -1 1.84 -1.76 3.08 -2.24 c1.24 -0.44 2.76 -0.68 4.52 -0.68 l17.2 0 z M63.929 30.68 l7.16 7.32 c0.32 0.36 0.4 0.8 0.28 1.24 c-0.16 0.52 -0.56 0.8 -1.08 0.8 l-4.52 0 c-0.36 0 -0.64 -0.08 -0.88 -0.2 c-0.2 -0.12 -0.4 -0.28 -0.56 -0.48 l-3.8 -3.96 l-0.92 1.24 c-0.48 0.68 -0.96 1.24 -1.36 1.68 c-0.44 0.44 -0.92 0.8 -1.4 1.08 c-0.52 0.24 -1.12 0.44 -1.72 0.52 s-1.36 0.12 -2.2 0.12 l-6.72 0 c-1.64 0 -2.92 -0.52 -3.88 -1.6 c-0.92 -1 -1.4 -2.64 -1.4 -4.84 l0 -2.44 c0 -1.6 0.28 -2.92 0.8 -4 s1.48 -2.04 2.76 -2.84 l3.44 -2.16 l-1.48 -1.6 c-0.44 -0.44 -0.76 -0.8 -1 -1.2 c-0.24 -0.36 -0.48 -0.76 -0.64 -1.16 c-0.16 -0.44 -0.28 -0.88 -0.32 -1.32 c-0.08 -0.48 -0.12 -0.96 -0.12 -1.56 l0 -2.52 c0 -1.6 0.32 -2.96 0.92 -3.92 c0.64 -1.08 1.76 -1.64 3.24 -1.64 l8.88 0 c1.48 0 2.6 0.48 3.32 1.44 c0.68 0.88 1.04 2.04 1.04 3.36 l0 3.28 c0 0.84 -0.04 1.56 -0.12 2.16 c-0.08 0.64 -0.24 1.24 -0.44 1.72 c-0.24 0.52 -0.56 1 -0.96 1.4 s-0.92 0.8 -1.52 1.16 l-2.16 1.4 l3.36 3.44 l2.12 -2.84 c0.4 -0.52 1 -0.84 1.64 -0.84 l4.12 0 c0.72 0 1.16 0.88 0.72 1.48 z M55.289 32.76 l1.2 -1.6 l-4.8 -5.04 l-3.12 1.96 c-0.96 0.52 -1.4 1.44 -1.4 2.88 l0 1.16 c0 0.92 0.2 1.36 0.36 1.52 c0.24 0.28 0.56 0.4 1 0.4 l4.24 0 c0.36 0 0.68 -0.04 0.92 -0.08 s0.44 -0.08 0.6 -0.16 s0.32 -0.2 0.44 -0.36 c0.2 -0.16 0.36 -0.4 0.56 -0.68 z M50.489 14.48 l0 1.32 c0 0.6 0.08 0.88 0.12 1 c0.04 0.16 0.2 0.4 0.6 0.84 l1.52 1.56 l2.32 -1.48 c0.56 -0.32 0.72 -0.56 0.8 -0.72 s0.16 -0.52 0.16 -1.2 l0 -1.6 c0 -0.36 -0.08 -0.64 -0.2 -0.8 c-0.08 -0.12 -0.24 -0.24 -0.6 -0.24 l-4.04 0 c-0.2 0 -0.68 0 -0.68 1.32 z M100.13799999999999 26.28 l6.92 12 c0.16 0.2 0.2 0.52 0.16 0.92 c-0.04 0.52 -0.36 0.84 -0.92 0.84 l-4.32 0 c-0.4 0 -0.68 -0.08 -0.84 -0.24 c-0.16 -0.12 -0.32 -0.32 -0.44 -0.56 l-6.24 -10.96 c-0.44 -0.8 -0.88 -1.32 -1.32 -1.56 c-0.48 -0.28 -1.2 -0.4 -2.16 -0.4 l-4.04 0 l0 12.32 c0 1.24 -0.8 1.4 -1.12 1.4 l-3.68 0 c-0.32 0 -1.16 -0.16 -1.16 -1.4 l0 -30.2 c0 -1.28 0.84 -1.4 1.16 -1.4 l3.68 0 c0.32 0 1.12 0.12 1.12 1.4 l0 11.96 l3.68 0 c0.52 0 0.96 -0.04 1.28 -0.08 s0.6 -0.12 0.84 -0.24 c0.2 -0.12 0.44 -0.32 0.64 -0.56 c0.2 -0.28 0.44 -0.6 0.68 -1 l6.04 -10.68 c0.12 -0.28 0.28 -0.44 0.44 -0.56 c0.16 -0.16 0.44 -0.24 0.88 -0.24 l3.96 0 c0.48 0 0.8 0.24 0.92 0.68 c0.04 0.36 0 0.68 -0.12 0.96 l-6.6 11.6 l-1.08 1.8 l-0.76 1.04 c0.8 0.76 1.6 1.84 2.4 3.16 z"></path></g><g id="SvgjsG2653" featurekey="inlineSymbolFeature-0" transform="matrix(1.3855540382540765,0,0,1.3855540382540765,120.96951737774994,-38.40894442468384)" fill="#ffffff"><path xmlns="http://www.w3.org/2000/svg" style="" d="M99.975,59.486c0,1.768-1.429,3.198-3.196,3.198H58.779c-0.901,0-1.714-0.371-2.296-0.975  l-25.08-25.901L5.478,61.748c-0.58,0.58-1.378,0.937-2.261,0.937c-1.766,0-3.195-1.431-3.195-3.198c0-0.883,0.358-1.682,0.935-2.259  L29.18,28.989c0.579-0.577,1.379-0.937,2.261-0.937c0.901,0,1.715,0.373,2.295,0.973l7.348,7.592h19.7v-8.896h8.479v8.896H79.55  c0.957,0,1.818,0.423,2.405,1.089l17.229,19.673C99.677,57.943,99.975,58.683,99.975,59.486z M22.589,58.375h6.974v-6.978h-6.974  V58.375z M33.104,58.375h6.973v-6.978h-6.973V58.375z M22.589,68.361h6.974v-6.978h-6.974V68.361z M33.104,68.397h6.973v-6.979  h-6.973V68.397z" fill="#ffffff"></path></g><g id="SvgjsG2654" featurekey="nameRightFeature-0" transform="matrix(0.9363170423414424,0,0,0.9363170423414424,253.8233711056292,6.820307609840632)" fill="#ffffff"><path d="M46.209 20.32 c2.08 0 3.68 0.76 4.76 2.2 c1.04 1.44 1.56 3.48 1.56 6.08 l0 3.52 c0 2.32 -0.52 4.2 -1.52 5.64 c-1.04 1.48 -2.68 2.24 -4.88 2.24 l-18.04 0 c-0.36 0 -1.16 -0.12 -1.16 -1.36 l0 -3.2 c0 -1.24 0.8 -1.36 1.16 -1.36 l17.08 0 c0.68 0 0.92 -0.28 1.08 -0.52 c0.24 -0.4 0.36 -0.96 0.36 -1.68 l0 -3.44 c0 -1.96 -0.8 -2.2 -1.4 -2.2 l-12 0 c-1.68 0 -3.52 -0.24 -4.76 -1.88 c-1 -1.4 -1.56 -3.64 -1.56 -6.4 l0 -3.04 c0 -2.32 0.52 -4.24 1.56 -5.68 c1.04 -1.48 2.64 -2.2 4.84 -2.2 l17.24 0 c0.32 0 1.12 0.12 1.12 1.36 l0 3.2 c0 1.24 -0.8 1.36 -1.12 1.36 l-16.28 0 c-0.68 0 -0.92 0.28 -1.08 0.52 c-0.2 0.4 -0.32 0.96 -0.32 1.68 l0 2.96 c0 1.96 0.76 2.2 1.36 2.2 l12 0 z M87.898 7.039999999999999 c0.36 0 1.16 0.16 1.16 1.4 l0 30.2 c0 1.24 -0.8 1.4 -1.16 1.4 l-3.68 0 c-0.32 0 -1.08 -0.16 -1.08 -1.4 l0 -12.32 l-15.16 0 l0 12.32 c0 1.24 -0.76 1.4 -1.12 1.4 l-3.64 0 c-0.36 0 -1.16 -0.16 -1.16 -1.4 l0 -30.2 c0 -1.24 0.8 -1.4 1.16 -1.4 l3.64 0 c0.36 0 1.12 0.16 1.12 1.4 l0 11.96 l15.16 0 l0 -11.96 c0 -1.24 0.76 -1.4 1.08 -1.4 l3.68 0 z M120.027 10.760000000000002 l11.24 27.72 c0.16 0.36 0.2 0.72 0.12 0.96 c-0.08 0.2 -0.24 0.6 -0.88 0.6 l-4.28 0 c-0.56 0 -0.96 -0.32 -1.16 -0.88 l-9.92 -24.76 l-0.04 -0.08 l-0.16 0 s-0.04 0.04 -0.08 0.12 l-5.12 12.96 l4.96 0 c0.52 0 0.96 0.32 1.16 0.8 l1.44 3.56 c0.12 0.4 0.08 0.84 -0.16 1.16 c-0.2 0.36 -0.6 0.56 -1.04 0.56 l-8.76 0 l-2.28 5.72 c-0.2 0.52 -0.6 0.84 -1.12 0.84 l-4.4 0 c-0.64 0 -0.84 -0.36 -0.88 -0.6 c-0.08 -0.24 -0.04 -0.6 0.08 -0.96 l11.16 -27.72 c0.56 -1.44 1.16 -2.4 1.76 -2.92 c0.16 -0.12 0.36 -0.28 0.6 -0.4 c0.8 -0.56 1.76 -0.84 2.76 -0.84 c2.2 0 4.12 1.48 4.76 3.56 z M169.036 38.28 c0.16 0.24 0.2 0.56 0.16 0.96 c-0.08 0.48 -0.44 0.8 -0.92 0.8 l-4.4 0 c-0.36 0 -0.64 -0.08 -0.84 -0.24 c-0.16 -0.12 -0.28 -0.32 -0.44 -0.56 l-7.24 -12.84 l-8.44 0 l0 12.24 c0 1.24 -0.76 1.4 -1.12 1.4 l-3.64 0 c-0.36 0 -1.16 -0.16 -1.16 -1.4 l0 -16.8 c0 -1.24 0.8 -1.36 1.16 -1.36 l17.4 0 c1.04 0 1.72 -0.28 2.12 -0.88 c0.44 -0.6 0.64 -1.56 0.64 -2.88 s-0.2 -2.28 -0.64 -2.88 c-0.4 -0.6 -1.08 -0.88 -2.12 -0.88 l-17.4 0 c-0.36 0 -1.16 -0.12 -1.16 -1.36 l0 -3.16 c0 -1.28 0.8 -1.4 1.16 -1.4 l18.44 0 c2.72 0 4.72 0.84 5.92 2.56 c1.08 1.64 1.68 3.96 1.76 7 l0 0.24 c-0.08 3.08 -0.68 5.4 -1.76 7 c-1 1.36 -2.52 2.2 -4.48 2.44 z M212.165 7.039999999999999 c1.32 0 2.24 0.44 2.72 1.28 c0.44 0.76 0.64 2.04 0.64 3.88 l0 26.44 c0 1.24 -0.8 1.4 -1.16 1.4 l-3.44 0 c-0.32 0 -1.12 -0.16 -1.12 -1.4 l0 -24.12 l-0.2 0 c-0.04 0 -0.08 0 -0.08 0.08 l-6.88 16.96 c-0.28 0.84 -0.56 1.56 -0.84 2.16 s-0.64 1.08 -0.96 1.48 c-0.36 0.4 -0.8 0.72 -1.28 0.88 c-0.44 0.16 -1 0.24 -1.6 0.24 l-1.64 0 c-0.6 0 -1.12 -0.08 -1.6 -0.24 s-0.88 -0.48 -1.28 -0.88 c-0.32 -0.4 -0.64 -0.88 -0.96 -1.48 c-0.28 -0.6 -0.56 -1.32 -0.84 -2.16 l-6.84 -16.92 c-0.04 -0.12 -0.08 -0.12 -0.12 -0.12 l-0.2 0 l0 24.12 c0 1.24 -0.76 1.4 -1.12 1.4 l-3.44 0 c-0.36 0 -1.16 -0.16 -1.16 -1.4 l0 -26.44 c0 -1.84 0.2 -3.12 0.64 -3.88 c0.48 -0.84 1.4 -1.28 2.76 -1.28 l3.68 0 c0.52 0 1 0.04 1.4 0.16 s0.8 0.32 1.12 0.6 c0.28 0.32 0.56 0.68 0.8 1.16 c0.2 0.48 0.44 1.08 0.68 1.84 l7.04 17.68 c0.04 0.16 0.12 0.16 0.12 0.16 l0.4 0 c0.04 0 0.08 0 0.12 -0.16 l7.08 -17.68 c0.24 -0.76 0.44 -1.36 0.68 -1.84 s0.52 -0.84 0.8 -1.16 c0.32 -0.28 0.68 -0.48 1.08 -0.6 s0.84 -0.16 1.4 -0.16 l3.6 0 z M246.49399999999997 10.760000000000002 l11.24 27.72 c0.16 0.36 0.2 0.72 0.12 0.96 c-0.08 0.2 -0.24 0.6 -0.88 0.6 l-4.28 0 c-0.56 0 -0.96 -0.32 -1.16 -0.88 l-9.92 -24.76 l-0.04 -0.08 l-0.16 0 s-0.04 0.04 -0.08 0.12 l-5.12 12.96 l4.96 0 c0.52 0 0.96 0.32 1.16 0.8 l1.44 3.56 c0.12 0.4 0.08 0.84 -0.16 1.16 c-0.2 0.36 -0.6 0.56 -1.04 0.56 l-8.76 0 l-2.28 5.72 c-0.2 0.52 -0.6 0.84 -1.12 0.84 l-4.4 0 c-0.64 0 -0.84 -0.36 -0.88 -0.6 c-0.08 -0.24 -0.04 -0.6 0.08 -0.96 l11.16 -27.72 c0.56 -1.44 1.16 -2.4 1.76 -2.92 c0.16 -0.12 0.36 -0.28 0.6 -0.4 c0.8 -0.56 1.76 -0.84 2.76 -0.84 c2.2 0 4.12 1.48 4.76 3.56 z"></path></g></svg>